<?xml version="1.0" ?><!-- Uploaded to: SVG Repo, www.svgrepo.com, Generator: SVG Repo Mixer Tools -->
<svg fill="#000000" width="800px" height="800px" viewBox="0 0 32 32" xmlns="http://www.w3.org/2000/svg" id="Layer_1" data-name="Layer 1"><path d="M24.65,2.15c-.17-.17-.42-.24-.66-.2-.09,.02-1.35,.25-3.1,.82-5.44-2.92-8.82-.9-9.9-.04-1.69-.54-2.9-.77-2.99-.78-.24-.04-.49,.03-.66,.2s-.25,.42-.21,.66l1.87,11.11,.27,1.78-.05,14.3c0,.2,.08,.39,.22,.53s.33,.22,.53,.22h12.66c.41,0,.75-.34,.75-.75v-10.21s0,0,0,0,0,0,0,0v-4.13c0-.64-.06-1.24-.17-1.84l1.64-11.01c.04-.24-.05-.48-.22-.65Zm-7.16,3.64c2.26-1.15,4.48-1.81,5.74-2.13l-1.05,7.06c-.98-1.86-2.54-3.51-4.69-4.94Zm1.43-2.3c-.93,.38-1.93,.84-2.91,1.39-1.1-.61-2.2-1.11-3.22-1.51,1.14-.58,3.19-1.08,6.14,.12Zm-10.11,.18c1.46,.37,4.22,1.2,6.83,2.72,3.51,2.03,5.56,4.57,6.11,7.56,.06,.31,.1,.63,.13,.95H10.67l-1.87-11.23Zm1.93,25.58l.03-8.72h5.97c.41,0,.75-.34,.75-.75s-.34-.75-.75-.75h-5.97v-2.64h11.13v2.64h-2.03c-.41,0-.75,.34-.75,.75s.34,.75,.75,.75h2.03v8.72H10.73Z"/></svg>