<?xml version="1.0" ?><!-- Uploaded to: SVG Repo, www.svgrepo.com, Generator: SVG Repo Mixer Tools -->
<svg fill="#000000" width="800px" height="800px" viewBox="0 0 32 32" xmlns="http://www.w3.org/2000/svg" id="Layer_1" data-name="Layer 1"><path d="M8.07,30.75h15.14c.41,0,.75-.34,.75-.75v-5.33c0-.22-.09-.42-.25-.56l-1.95-1.72v-3.24l4.26-2.6c.22-.14,.36-.38,.36-.64v-6.99c0-.32-.2-.6-.5-.71l-4.12-1.46v-.97c0-.41-.34-.75-.75-.75h-1.8V2c0-.41-.34-.75-.75-.75h-5.65c-.41,0-.75,.34-.75,.75v3.03h-1.77c-.41,0-.75,.34-.75,.75V22.39l-1.95,1.72c-.16,.14-.25,.35-.25,.56v5.33c0,.41,.34,.75,.75,.75ZM21.75,10.72l.96,.29v3.1l-.96,.57v-3.95Zm3.12-1.27v6.03l-3.12,1.91v-.97l2.09-1.25c.23-.14,.37-.38,.37-.64v-4.08c0-.33-.22-.62-.54-.72l-1.92-.57v-.81l3.12,1.1ZM13.55,2.75h4.15v2.28h-4.15V2.75Zm-2.52,3.78h9.22v2.39h-1.94c-.41,0-.75,.34-.75,.75s.34,.75,.75,.75h1.94v2.93h-1.94c-.41,0-.75,.34-.75,.75s.34,.75,.75,.75h1.94v2.93h-1.94c-.41,0-.75,.34-.75,.75s.34,.75,.75,.75h1.94v2.71H11.03V6.53Zm-2.21,18.48l1.74-1.53h10.15l1.74,1.53v4.24H8.82v-4.24Z"/></svg>