<?xml version="1.0" ?><!-- Uploaded to: SVG Repo, www.svgrepo.com, Generator: SVG Repo Mixer Tools -->
<svg fill="#000000" width="800px" height="800px" viewBox="0 0 32 32" xmlns="http://www.w3.org/2000/svg" id="Layer_1" data-name="Layer 1"><path d="M14.96,6.82h-2.13v-1.22c0-2.4-1.95-4.35-4.35-4.35s-4.35,1.95-4.35,4.35v1.22H2c-.41,0-.75,.34-.75,.75V30c0,.41,.34,.75,.75,.75H14.96c.41,0,.75-.34,.75-.75V7.57c0-.41-.34-.75-.75-.75Zm-9.33-1.22c0-1.57,1.28-2.85,2.85-2.85s2.85,1.28,2.85,2.85v1.22H5.63v-1.22ZM14.21,29.25H2.75V8.32H14.21V29.25Z"/><path d="M6.29,10.02h-2.15c-.41,0-.75,.34-.75,.75s.34,.75,.75,.75h2.15c.41,0,.75-.34,.75-.75s-.34-.75-.75-.75Z"/><path d="M9.92,10.77c0,.41,.34,.75,.75,.75h2.15c.41,0,.75-.34,.75-.75s-.34-.75-.75-.75h-2.15c-.41,0-.75,.34-.75,.75Z"/><path d="M6.29,13.23h-2.15c-.41,0-.75,.34-.75,.75s.34,.75,.75,.75h2.15c.41,0,.75-.34,.75-.75s-.34-.75-.75-.75Z"/><path d="M12.82,13.23h-2.15c-.41,0-.75,.34-.75,.75s.34,.75,.75,.75h2.15c.41,0,.75-.34,.75-.75s-.34-.75-.75-.75Z"/><path d="M6.29,16.43h-2.15c-.41,0-.75,.34-.75,.75s.34,.75,.75,.75h2.15c.41,0,.75-.34,.75-.75s-.34-.75-.75-.75Z"/><path d="M12.82,16.43h-2.15c-.41,0-.75,.34-.75,.75s.34,.75,.75,.75h2.15c.41,0,.75-.34,.75-.75s-.34-.75-.75-.75Z"/><path d="M6.29,19.64h-2.15c-.41,0-.75,.34-.75,.75s.34,.75,.75,.75h2.15c.41,0,.75-.34,.75-.75s-.34-.75-.75-.75Z"/><path d="M12.82,19.64h-2.15c-.41,0-.75,.34-.75,.75s.34,.75,.75,.75h2.15c.41,0,.75-.34,.75-.75s-.34-.75-.75-.75Z"/><path d="M6.29,22.84h-2.15c-.41,0-.75,.34-.75,.75s.34,.75,.75,.75h2.15c.41,0,.75-.34,.75-.75s-.34-.75-.75-.75Z"/><path d="M12.82,22.84h-2.15c-.41,0-.75,.34-.75,.75s.34,.75,.75,.75h2.15c.41,0,.75-.34,.75-.75s-.34-.75-.75-.75Z"/><path d="M6.29,26.05h-2.15c-.41,0-.75,.34-.75,.75s.34,.75,.75,.75h2.15c.41,0,.75-.34,.75-.75s-.34-.75-.75-.75Z"/><path d="M12.82,26.05h-2.15c-.41,0-.75,.34-.75,.75s.34,.75,.75,.75h2.15c.41,0,.75-.34,.75-.75s-.34-.75-.75-.75Z"/><path d="M30.72,25.84s-.02-.1-.04-.14c0,0,0-.01,0-.02l-1.97-4.01c-.17-.35-.58-.51-.95-.37l-10.04,4s0,0,0,0c-.07,.03-.12,.07-.18,.12-.02,.02-.05,.03-.07,.04,0,0,0,0,0,0-.03,.03-.04,.06-.06,.09-.04,.05-.08,.1-.1,.15-.01,.03-.01,.07-.02,.11-.01,.06-.03,.11-.03,.17,0,0,0,0,0,0v4c0,.41,.34,.75,.75,.75h12.01c.41,0,.75-.34,.75-.75v-3.99s0-.01,0-.02c0-.05-.02-.1-.03-.15Zm-1.92-.58h-6.9s5.77-2.31,5.77-2.31l1.13,2.31Zm.45,3.99h-10.51v-2.5h10.51v2.5Z"/><circle cx="21.25" cy="28" r=".61"/><circle cx="26" cy="28" r=".61"/><circle cx="26.71" cy="24.34" r=".61"/></svg>