<?xml version="1.0" ?><!-- Uploaded to: SVG Repo, www.svgrepo.com, Generator: SVG Repo Mixer Tools -->
<svg fill="#000000" width="800px" height="800px" viewBox="0 0 32 32" xmlns="http://www.w3.org/2000/svg" id="Layer_1" data-name="Layer 1"><path d="M14.98,21.64h-4.57c-.41,0-.75,.34-.75,.75v3.9c0,.41,.34,.75,.75,.75h4.57c.41,0,.75-.34,.75-.75v-3.9c0-.41-.34-.75-.75-.75Zm-.75,3.9h-3.07v-2.4h3.07v2.4Z"/><path d="M21.6,21.64h-4.57c-.41,0-.75,.34-.75,.75v3.9c0,.41,.34,.75,.75,.75h4.57c.41,0,.75-.34,.75-.75v-3.9c0-.41-.34-.75-.75-.75Zm-.75,3.9h-3.07v-2.4h3.07v2.4Z"/><path d="M4.23,26.4c.11,0,.23-.03,.34-.08,.84-.43,1.46-1.32,1.69-2.45,.14-.68,.14-1.35,.14-2,0-.19,0-.37,0-.56,.01-.61,.07-1.39,.41-1.96,.15-.26,.37-.45,.6-.57v11.39c0,.41,.34,.75,.75,.75h15.65c.41,0,.75-.34,.75-.75v-11.39c.23,.12,.45,.31,.6,.57,.35,.58,.4,1.35,.41,1.97,0,.19,0,.37,0,.56,0,.65,0,1.32,.14,2,.23,1.13,.85,2.03,1.69,2.45,.11,.05,.22,.08,.34,.08,.27,0,.54-.15,.67-.41,.19-.37,.04-.82-.33-1.01-.43-.22-.76-.75-.9-1.42-.11-.53-.11-1.09-.11-1.69,0-.2,0-.39,0-.59-.01-.8-.1-1.82-.63-2.71-.44-.73-1.15-1.23-1.89-1.37v-4.79c0-.2-.08-.39-.22-.53l-3.74-3.74v-1.24l.2-.13c.21-.14,.33-.37,.33-.62,0-2.84-2.31-5.15-5.15-5.15s-5.15,2.31-5.15,5.15c0,.25,.12,.48,.33,.62l.2,.13v1.24l-3.74,3.74c-.14,.14-.22,.33-.22,.53v4.79c-.74,.15-1.45,.64-1.89,1.37-.53,.88-.61,1.91-.63,2.71,0,.2,0,.39,0,.59,0,.6,0,1.16-.11,1.69-.14,.67-.48,1.2-.9,1.42-.37,.19-.52,.64-.33,1.01,.13,.26,.4,.41,.67,.41ZM16,2.52c1.88,0,3.43,1.43,3.63,3.26l-.18,.12c-.21,.14-.33,.37-.33,.62v1.2h-6.23v-1.2c0-.25-.12-.48-.33-.62l-.18-.12c.19-1.83,1.75-3.26,3.63-3.26Zm-7.08,10.22l3.52-3.52h7.11l3.52,3.52V29.42H8.92V12.74Z"/></svg>